<?xml version="1.0" encoding="UTF-8"?><svg id="uuid-6d570ec6-e648-4350-990b-95fb05b9cd6b" xmlns="http://www.w3.org/2000/svg" viewBox="0 0 1677.46 869.82"><defs><style>.uuid-e9f7f858-4256-4113-a64e-81f7ab47bdaf{fill:#87ccf0;}.uuid-23aaef5b-5d43-493a-b369-80b77e0768e9{fill:#fff;}.uuid-1db03bd3-2584-485c-8180-8d4e9fb4b6c9{fill:#1562ae;}</style></defs><g id="uuid-6534ab86-b55c-46e6-9f2b-a57685e6e3b7"><g id="uuid-409fc3df-7a54-4696-a06f-6d0796a108c6"><path id="uuid-50fbe65d-0f68-40f0-81e5-0a008ffbd488" class="uuid-23aaef5b-5d43-493a-b369-80b77e0768e9" d="M1242.56,186.41h62.13v62.13h-62.13v-62.13Z"/><path id="uuid-adc7493d-3e6a-4414-92dd-a6bcbd282d15" class="uuid-23aaef5b-5d43-493a-b369-80b77e0768e9" d="M62.13,497.04h62.13v62.13h-62.13v-62.13Z"/><path id="uuid-e707418f-2e14-4de4-9f7d-54e81ef4adf7" class="uuid-23aaef5b-5d43-493a-b369-80b77e0768e9" d="M62.13,559.17h62.13v62.13h-62.13v-62.13Z"/><path id="uuid-00d6e3b7-9a3e-4796-b3c7-ca98e21f10fd" class="uuid-23aaef5b-5d43-493a-b369-80b77e0768e9" d="M124.26,434.9h62.13v62.13h-62.13v-62.13Z"/><path id="uuid-bace1ef3-c262-43d0-b224-7876bf955bad" class="uuid-23aaef5b-5d43-493a-b369-80b77e0768e9" d="M124.26,497.03h62.13v62.13h-62.13v-62.13Z"/><path id="uuid-805128bf-d8e9-45f0-9b91-08395fadc034" class="uuid-23aaef5b-5d43-493a-b369-80b77e0768e9" d="M124.26,559.16h62.13v62.13h-62.13v-62.13Z"/><path id="uuid-bb4f9088-5a8c-4c67-9f52-dbe22f8b63ef" class="uuid-23aaef5b-5d43-493a-b369-80b77e0768e9" d="M124.26,621.29h62.13v62.13h-62.13v-62.13Z"/><path id="uuid-249186a1-17df-4bba-a34a-06eab146e04b" class="uuid-23aaef5b-5d43-493a-b369-80b77e0768e9" d="M869.79,62.15h62.13v62.13h-62.13v-62.13Z"/><path id="uuid-7c64241e-00d6-40b7-a447-21839468860c" class="uuid-23aaef5b-5d43-493a-b369-80b77e0768e9" d="M931.92,62.15h62.13v62.13h-62.13v-62.13Z"/><path id="uuid-a8754f46-8084-4c68-98d0-cdf665ca3d41" class="uuid-23aaef5b-5d43-493a-b369-80b77e0768e9" d="M745.54,124.28h62.13v62.13h-62.13v-62.13Z"/><path id="uuid-6de93f68-84c9-42ef-93ce-7207cbd57730" class="uuid-23aaef5b-5d43-493a-b369-80b77e0768e9" d="M807.66,124.28h62.13v62.13h-62.13v-62.13Z"/><path id="uuid-a33d9cdf-a641-4e49-b434-86c918be6191" class="uuid-23aaef5b-5d43-493a-b369-80b77e0768e9" d="M869.79,124.28h62.13v62.13h-62.13v-62.13Z"/><path id="uuid-6ecc3b07-4066-41ac-b77f-86dc7d068917" class="uuid-23aaef5b-5d43-493a-b369-80b77e0768e9" d="M931.92,124.28h62.13v62.13h-62.13v-62.13Z"/><path id="uuid-93cee258-78d1-4f7d-b665-11685badd9e5" class="uuid-23aaef5b-5d43-493a-b369-80b77e0768e9" d="M434.89,186.41h62.13v62.13h-62.13v-62.13Z"/><path id="uuid-3ee19656-a711-48c1-841b-3df2f09070b5" class="uuid-23aaef5b-5d43-493a-b369-80b77e0768e9" d="M497.02,186.41h62.13v62.13h-62.13v-62.13Z"/><path id="uuid-a79b79a2-a5af-4f8b-a016-bf1f47892188" class="uuid-23aaef5b-5d43-493a-b369-80b77e0768e9" d="M559.15,186.41h62.13v62.13h-62.13v-62.13Z"/><path id="uuid-1c153dc5-1cd4-4568-aa0f-7c7c3ba6a0d9" class="uuid-23aaef5b-5d43-493a-b369-80b77e0768e9" d="M745.53,186.41h62.13v62.13h-62.13v-62.13Z"/><path id="uuid-8cfe6eb5-2610-47af-a5e8-b5cb357847f5" class="uuid-23aaef5b-5d43-493a-b369-80b77e0768e9" d="M807.66,186.41h62.13v62.13h-62.13v-62.13Z"/><path id="uuid-836a76d6-4837-45fb-a79c-e9b632f482a3" class="uuid-23aaef5b-5d43-493a-b369-80b77e0768e9" d="M869.79,186.41h62.13v62.13h-62.13v-62.13Z"/><path id="uuid-d69692bb-47c3-4434-ba5f-3c34f7ca913a" class="uuid-23aaef5b-5d43-493a-b369-80b77e0768e9" d="M372.77,248.53h62.13v62.13h-62.13v-62.13Z"/><path id="uuid-3256a666-d62a-43ed-bce0-bf548b507a30" class="uuid-23aaef5b-5d43-493a-b369-80b77e0768e9" d="M434.89,248.53h62.13v62.13h-62.13v-62.13Z"/><path id="uuid-c0704a7b-bffc-4e4c-97dd-98dbd5bdb54c" class="uuid-23aaef5b-5d43-493a-b369-80b77e0768e9" d="M497.02,248.53h62.13v62.13h-62.13v-62.13Z"/><path id="uuid-b7520d38-4a06-4187-bad1-4013f19799cd" class="uuid-23aaef5b-5d43-493a-b369-80b77e0768e9" d="M559.15,248.53h62.13v62.13h-62.13v-62.13Z"/><path id="uuid-c922055a-1884-4eea-bb8e-4892670563ab" class="uuid-23aaef5b-5d43-493a-b369-80b77e0768e9" d="M621.28,248.53h62.13v62.13h-62.13v-62.13Z"/><path id="uuid-5a247ffb-2ea8-4036-810c-4628537bd57b" class="uuid-23aaef5b-5d43-493a-b369-80b77e0768e9" d="M807.66,248.53h62.13v62.13h-62.13v-62.13Z"/><path id="uuid-030a8eeb-42c4-4f35-94cf-1ab3cdc3b553" class="uuid-23aaef5b-5d43-493a-b369-80b77e0768e9" d="M372.76,310.66h62.13v62.13h-62.13v-62.13Z"/><path id="uuid-38e777bf-413a-4e1e-9744-bce4fbe16f39" class="uuid-23aaef5b-5d43-493a-b369-80b77e0768e9" d="M434.89,310.66h62.13v62.13h-62.13v-62.13Z"/><path id="uuid-bbfd6c7d-a9c2-489c-8d47-229db3cf53e4" class="uuid-23aaef5b-5d43-493a-b369-80b77e0768e9" d="M497.02,310.66h62.13v62.13h-62.13v-62.13Z"/><path id="uuid-378788bb-1b4e-4d1a-be43-af35da70be81" class="uuid-23aaef5b-5d43-493a-b369-80b77e0768e9" d="M559.15,310.66h62.13v62.13h-62.13v-62.13Z"/><path id="uuid-cee8351a-4f1b-4834-b7d3-54b5e2ce94a8" class="uuid-23aaef5b-5d43-493a-b369-80b77e0768e9" d="M621.28,310.66h62.13v62.13h-62.13v-62.13Z"/><path id="uuid-07103f31-5714-4121-9604-31469616e51a" class="uuid-23aaef5b-5d43-493a-b369-80b77e0768e9" d="M807.66,310.66h62.13v62.13h-62.13v-62.13Z"/><path id="uuid-cb4131b3-95dd-4318-a2d2-c725b470c493" class="uuid-23aaef5b-5d43-493a-b369-80b77e0768e9" d="M310.64,372.79h62.13v62.13h-62.13v-62.13Z"/><path id="uuid-8e200e60-f684-4597-9281-69cb7f7b5804" class="uuid-23aaef5b-5d43-493a-b369-80b77e0768e9" d="M372.76,372.79h62.13v62.13h-62.13v-62.13Z"/><path id="uuid-dac8600c-0fc7-4596-8773-e1196b6e3d05" class="uuid-23aaef5b-5d43-493a-b369-80b77e0768e9" d="M497.02,372.79h62.13v62.13h-62.13v-62.13Z"/><path id="uuid-7ad0a7f8-a8a4-4bd5-a7ef-11fe2c9ff7a7" class="uuid-23aaef5b-5d43-493a-b369-80b77e0768e9" d="M559.15,372.79h62.13v62.13h-62.13v-62.13Z"/><path id="uuid-85caf99b-f5dc-4419-89cb-7830231fbe80" class="uuid-23aaef5b-5d43-493a-b369-80b77e0768e9" d="M807.66,372.79h62.13v62.13h-62.13v-62.13Z"/><path id="uuid-ad9d739c-a4db-4a28-945d-8c638160ed19" class="uuid-23aaef5b-5d43-493a-b369-80b77e0768e9" d="M186.38,434.92h62.13v62.13h-62.13v-62.13Z"/><path id="uuid-94e3293e-5756-411e-b323-5745451b4f87" class="uuid-23aaef5b-5d43-493a-b369-80b77e0768e9" d="M248.51,434.92h62.13v62.13h-62.13v-62.13Z"/><path id="uuid-41460305-c31b-42e7-8c6f-84d96ae45487" class="uuid-23aaef5b-5d43-493a-b369-80b77e0768e9" d="M310.64,434.92h62.13v62.13h-62.13v-62.13Z"/><path id="uuid-1bfb186a-d51e-4029-a203-dd98e761de7c" class="uuid-23aaef5b-5d43-493a-b369-80b77e0768e9" d="M372.76,434.92h62.13v62.13h-62.13v-62.13Z"/><path id="uuid-af14523f-cb4d-4d2f-aa47-140a572eeef6" class="uuid-23aaef5b-5d43-493a-b369-80b77e0768e9" d="M745.53,434.92h62.13v62.13h-62.13v-62.13Z"/><path id="uuid-e8838f3c-75bc-4cad-8731-b34f6d4fcde7" class="uuid-23aaef5b-5d43-493a-b369-80b77e0768e9" d="M807.66,434.92h62.13v62.13h-62.13v-62.13Z"/><path id="uuid-fcefd62f-3751-4d01-b163-50b8e5dffe65" class="uuid-23aaef5b-5d43-493a-b369-80b77e0768e9" d="M869.79,434.92h62.13v62.13h-62.13v-62.13Z"/><path id="uuid-14bf403e-ddfd-45b6-a591-8e70ff3abcf3" class="uuid-23aaef5b-5d43-493a-b369-80b77e0768e9" d="M186.38,497.05h62.13v62.13h-62.13v-62.13Z"/><path id="uuid-da3dd622-4395-454f-9d11-1d1f9c16e81d" class="uuid-23aaef5b-5d43-493a-b369-80b77e0768e9" d="M248.51,497.05h62.13v62.13h-62.13v-62.13Z"/><path id="uuid-b4d96bc5-88cd-49d1-99ad-4b839905e65c" class="uuid-23aaef5b-5d43-493a-b369-80b77e0768e9" d="M310.64,497.05h62.13v62.13h-62.13v-62.13Z"/><path id="uuid-c77a6a2a-22fe-4c73-a76c-dde3f5044248" class="uuid-23aaef5b-5d43-493a-b369-80b77e0768e9" d="M372.76,497.05h62.13v62.13h-62.13v-62.13Z"/><path id="uuid-fc705450-801f-4a66-b633-8e7c933844f7" class="uuid-23aaef5b-5d43-493a-b369-80b77e0768e9" d="M434.89,497.05h62.13v62.13h-62.13v-62.13Z"/><path id="uuid-435e482e-0fed-445d-9b7f-d0281b455286" class="uuid-23aaef5b-5d43-493a-b369-80b77e0768e9" d="M683.41,497.05h62.13v62.13h-62.13v-62.13Z"/><path id="uuid-bd75fc9a-230f-4187-a926-34a919afd77d" class="uuid-23aaef5b-5d43-493a-b369-80b77e0768e9" d="M745.53,497.05h62.13v62.13h-62.13v-62.13Z"/><path id="uuid-ab761d46-d54f-4eaf-860b-2f9112a1d9cf" class="uuid-23aaef5b-5d43-493a-b369-80b77e0768e9" d="M807.66,497.05h62.13v62.13h-62.13v-62.13Z"/><path id="uuid-32e9ca5b-6caa-4406-86dc-f66b350df00a" class="uuid-23aaef5b-5d43-493a-b369-80b77e0768e9" d="M869.79,497.05h62.13v62.13h-62.13v-62.13Z"/><path id="uuid-63600133-8da6-4a7b-aba0-95d12bbe72a0" class="uuid-23aaef5b-5d43-493a-b369-80b77e0768e9" d="M931.92,497.05h62.13v62.13h-62.13v-62.13Z"/><path id="uuid-dd154417-e5d0-4186-a07a-56bded43a830" class="uuid-23aaef5b-5d43-493a-b369-80b77e0768e9" d="M186.38,559.18h62.13v62.13h-62.13v-62.13Z"/><path id="uuid-35ad5006-fc7d-4140-9849-2669634ef347" class="uuid-23aaef5b-5d43-493a-b369-80b77e0768e9" d="M248.51,559.18h62.13v62.13h-62.13v-62.13Z"/><path id="uuid-1082b9f1-830b-4f1a-89fe-17cd4c81be79" class="uuid-23aaef5b-5d43-493a-b369-80b77e0768e9" d="M310.64,559.18h62.13v62.13h-62.13v-62.13Z"/><path id="uuid-ea31eaf7-ae57-4145-8b9c-65a247be8e8f" class="uuid-23aaef5b-5d43-493a-b369-80b77e0768e9" d="M372.76,559.18h62.13v62.13h-62.13v-62.13Z"/><path id="uuid-ffcf3815-3c41-4165-8c43-a5d0c7c6ec51" class="uuid-23aaef5b-5d43-493a-b369-80b77e0768e9" d="M434.89,559.18h62.13v62.13h-62.13v-62.13Z"/><path id="uuid-e46c2480-9921-4b3d-b4a2-59a37c597dcb" class="uuid-23aaef5b-5d43-493a-b369-80b77e0768e9" d="M497.02,559.18h62.13v62.13h-62.13v-62.13Z"/><path id="uuid-6ed8a3d3-b226-42f4-b589-8a7d6d49246f" class="uuid-23aaef5b-5d43-493a-b369-80b77e0768e9" d="M559.15,559.18h62.13v62.13h-62.13v-62.13Z"/><path id="uuid-9b9f0f99-f18b-4242-be93-10f672241e28" class="uuid-23aaef5b-5d43-493a-b369-80b77e0768e9" d="M621.28,559.18h62.13v62.13h-62.13v-62.13Z"/><path id="uuid-51b45628-6aec-40c1-ae99-4a266d0e2f8b" class="uuid-23aaef5b-5d43-493a-b369-80b77e0768e9" d="M683.41,559.18h62.13v62.13h-62.13v-62.13Z"/><path id="uuid-2ee17048-eb58-41f4-8602-41a8b4c1d901" class="uuid-23aaef5b-5d43-493a-b369-80b77e0768e9" d="M745.53,559.18h62.13v62.13h-62.13v-62.13Z"/><path id="uuid-19f0e34a-875f-4d66-a9cb-f022344f251b" class="uuid-23aaef5b-5d43-493a-b369-80b77e0768e9" d="M807.66,559.18h62.13v62.13h-62.13v-62.13Z"/><path id="uuid-aff9ce5f-9684-4470-99c4-254fe0e501c7" class="uuid-23aaef5b-5d43-493a-b369-80b77e0768e9" d="M869.79,559.18h62.13v62.13h-62.13v-62.13Z"/><path id="uuid-02ff3cff-7288-48a3-b330-9d905cd055fe" class="uuid-23aaef5b-5d43-493a-b369-80b77e0768e9" d="M931.92,559.18h62.13v62.13h-62.13v-62.13Z"/><path id="uuid-6779942f-d869-4562-95f1-f9c3cc338c6c" class="uuid-23aaef5b-5d43-493a-b369-80b77e0768e9" d="M186.38,621.31h62.13v62.13h-62.13v-62.13Z"/><path id="uuid-b9f445be-77ed-466d-a874-e8e39fae4d16" class="uuid-23aaef5b-5d43-493a-b369-80b77e0768e9" d="M248.51,621.31h62.13v62.13h-62.13v-62.13Z"/><path id="uuid-5eae9ed4-6412-4240-893d-776277d46e3e" class="uuid-23aaef5b-5d43-493a-b369-80b77e0768e9" d="M310.64,621.31h62.13v62.13h-62.13v-62.13Z"/><path id="uuid-c8029413-1a7e-4d88-b72f-1dca51fbb00c" class="uuid-23aaef5b-5d43-493a-b369-80b77e0768e9" d="M497.02,621.31h62.13v62.13h-62.13v-62.13Z"/><path id="uuid-6d4102b2-73f3-41de-9ab4-5adc93528172" class="uuid-23aaef5b-5d43-493a-b369-80b77e0768e9" d="M559.15,621.31h62.13v62.13h-62.13v-62.13Z"/><path id="uuid-ce6800e8-c8e0-4c7a-b7c8-67e1c90b1783" class="uuid-23aaef5b-5d43-493a-b369-80b77e0768e9" d="M621.28,621.31h62.13v62.13h-62.13v-62.13Z"/><path id="uuid-b4722e85-a4da-4b78-a796-e54511d64eb7" class="uuid-23aaef5b-5d43-493a-b369-80b77e0768e9" d="M683.41,621.31h62.13v62.13h-62.13v-62.13Z"/><path id="uuid-d8268311-fe1d-4056-8663-a8bb32cb6ec0" class="uuid-23aaef5b-5d43-493a-b369-80b77e0768e9" d="M745.53,621.31h62.13v62.13h-62.13v-62.13Z"/><path id="uuid-73779412-4a53-4294-a8f5-93b47496225c" class="uuid-23aaef5b-5d43-493a-b369-80b77e0768e9" d="M807.66,621.31h62.13v62.13h-62.13v-62.13Z"/><path id="uuid-d2b52d78-044f-4b9b-9f32-df0983ad9996" class="uuid-23aaef5b-5d43-493a-b369-80b77e0768e9" d="M869.79,621.31h62.13v62.13h-62.13v-62.13Z"/><path id="uuid-a44a76e9-9d1b-4a59-b698-fd1142ba6611" class="uuid-23aaef5b-5d43-493a-b369-80b77e0768e9" d="M931.92,621.31h62.13v62.13h-62.13v-62.13Z"/><path id="uuid-fda20d4c-8e67-4f57-8460-2a47dee92ff9" class="uuid-23aaef5b-5d43-493a-b369-80b77e0768e9" d="M621.28,683.44h62.13v62.13h-62.13v-62.13Z"/><path id="uuid-7c6a3811-f99c-46a7-80fa-cb4ba6bdcbf1" class="uuid-23aaef5b-5d43-493a-b369-80b77e0768e9" d="M683.41,683.44h62.13v62.13h-62.13v-62.13Z"/><path id="uuid-b7eea135-1e69-4a30-bfb1-37cc65c4abcb" class="uuid-23aaef5b-5d43-493a-b369-80b77e0768e9" d="M745.53,683.44h62.13v62.13h-62.13v-62.13Z"/><path id="uuid-33ceddfd-a752-4427-b6e9-3a6f1b62f8a8" class="uuid-23aaef5b-5d43-493a-b369-80b77e0768e9" d="M807.66,683.44h62.13v62.13h-62.13v-62.13Z"/><path id="uuid-5eabec49-1bc3-46fc-8d31-720536f2c0dc" class="uuid-23aaef5b-5d43-493a-b369-80b77e0768e9" d="M869.79,683.44h62.13v62.13h-62.13v-62.13Z"/><path id="uuid-798d3dc6-1094-4b69-a674-9d3e4c287c69" class="uuid-23aaef5b-5d43-493a-b369-80b77e0768e9" d="M931.92,683.44h62.13v62.13h-62.13v-62.13Z"/><path id="uuid-6388ba49-56a6-4229-9184-82baea8db941" class="uuid-23aaef5b-5d43-493a-b369-80b77e0768e9" d="M1056.18,62.15h62.13v62.13h-62.13v-62.13Z"/><path id="uuid-1c036885-d90b-447a-a97a-20bc5911bc94" class="uuid-23aaef5b-5d43-493a-b369-80b77e0768e9" d="M1056.18,124.28h62.13v62.13h-62.13v-62.13Z"/><path id="uuid-618d5124-37d6-43b2-8fa6-63d8e9c07c31" class="uuid-23aaef5b-5d43-493a-b369-80b77e0768e9" d="M1118.31,124.28h62.13v62.13h-62.13v-62.13Z"/><path id="uuid-a2286069-69e4-4cf0-aec8-8da5808c2502" class="uuid-23aaef5b-5d43-493a-b369-80b77e0768e9" d="M1180.44,124.28h62.13v62.13h-62.13v-62.13Z"/><path id="uuid-5074977b-24b6-4717-9c5c-1869f68d1e61" class="uuid-23aaef5b-5d43-493a-b369-80b77e0768e9" d="M1118.31,186.41h62.13v62.13h-62.13v-62.13Z"/><path id="uuid-b2f47fc2-bb1e-4eb8-9ea5-27402a036189" class="uuid-23aaef5b-5d43-493a-b369-80b77e0768e9" d="M1180.44,186.41h62.13v62.13h-62.13v-62.13Z"/><path id="uuid-8238cd94-c824-428c-a28b-d71b25e87756" class="uuid-23aaef5b-5d43-493a-b369-80b77e0768e9" d="M1180.44,248.53h62.13v62.13h-62.13v-62.13Z"/><path id="uuid-1979ed77-cdd9-4130-8ff7-b623790d3ffe" class="uuid-23aaef5b-5d43-493a-b369-80b77e0768e9" d="M1242.56,248.53h62.13v62.13h-62.13v-62.13Z"/><path id="uuid-020f1534-453a-4ea7-b37a-411efd63bf4e" class="uuid-23aaef5b-5d43-493a-b369-80b77e0768e9" d="M1056.18,310.66h62.13v62.13h-62.13v-62.13Z"/><path id="uuid-9a88b060-4b28-475c-9897-ed1836bc35d9" class="uuid-23aaef5b-5d43-493a-b369-80b77e0768e9" d="M1180.44,310.66h62.13v62.13h-62.13v-62.13Z"/><path id="uuid-f832a8aa-6977-4fc5-9be8-d22a4be4dc03" class="uuid-23aaef5b-5d43-493a-b369-80b77e0768e9" d="M1242.56,310.66h62.13v62.13h-62.13v-62.13Z"/><path id="uuid-f694613b-3094-4c1a-a5cc-d648ed4f8c9a" class="uuid-23aaef5b-5d43-493a-b369-80b77e0768e9" d="M1056.18,372.79h62.13v62.13h-62.13v-62.13Z"/><path id="uuid-4d571946-ceaf-4548-980e-90243905d573" class="uuid-23aaef5b-5d43-493a-b369-80b77e0768e9" d="M1118.31,372.79h62.13v62.13h-62.13v-62.13Z"/><path id="uuid-49b664df-a7b6-48d5-927f-92ff619aaa1c" class="uuid-23aaef5b-5d43-493a-b369-80b77e0768e9" d="M1180.44,372.79h62.13v62.13h-62.13v-62.13Z"/><path id="uuid-51bb5e66-2a92-4a89-9135-adb76fa89c29" class="uuid-23aaef5b-5d43-493a-b369-80b77e0768e9" d="M1242.56,372.79h62.13v62.13h-62.13v-62.13Z"/><path id="uuid-62d7c044-6fe0-4416-92fd-187d8d058250" class="uuid-23aaef5b-5d43-493a-b369-80b77e0768e9" d="M1056.18,434.92h62.13v62.13h-62.13v-62.13Z"/><path id="uuid-183abd85-7268-4591-b516-1b457b22c411" class="uuid-23aaef5b-5d43-493a-b369-80b77e0768e9" d="M1118.31,434.92h62.13v62.13h-62.13v-62.13Z"/><path id="uuid-3f5785b4-1cbc-4808-a907-a76459d6cabc" class="uuid-23aaef5b-5d43-493a-b369-80b77e0768e9" d="M1180.44,434.92h62.13v62.13h-62.13v-62.13Z"/><path id="uuid-0702407a-8849-43da-b621-de2ab26d6d76" class="uuid-23aaef5b-5d43-493a-b369-80b77e0768e9" d="M1056.18,621.31h62.13v62.13h-62.13v-62.13Z"/><path id="uuid-51ebdd8c-e912-47bd-92e8-64255668e142" class="uuid-23aaef5b-5d43-493a-b369-80b77e0768e9" d="M1242.56,621.31h62.13v62.13h-62.13v-62.13Z"/><path id="uuid-62852523-fb92-49ba-8282-09d6fec549b5" class="uuid-23aaef5b-5d43-493a-b369-80b77e0768e9" d="M994.05,62.14h62.13v62.13h-62.13v-62.13Z"/><path id="uuid-83c95d0f-7681-44a0-9a86-c81440355509" class="uuid-23aaef5b-5d43-493a-b369-80b77e0768e9" d="M994.05,124.27h62.13v62.13h-62.13v-62.13Z"/><path id="uuid-1e6dc1e8-4ac2-4baa-8acf-2f993b3abf0e" class="uuid-23aaef5b-5d43-493a-b369-80b77e0768e9" d="M994.05,310.65h62.13v62.13h-62.13v-62.13Z"/><path id="uuid-4d439cb4-7131-4ed7-8b74-1ee9c0674e3c" class="uuid-23aaef5b-5d43-493a-b369-80b77e0768e9" d="M994.05,372.78h62.13v62.13h-62.13v-62.13Z"/><path id="uuid-daf35885-ffd2-4952-890a-6738794f299a" class="uuid-23aaef5b-5d43-493a-b369-80b77e0768e9" d="M994.05,434.91h62.13v62.13h-62.13v-62.13Z"/><path id="uuid-2ed4b072-2ce7-468c-b13d-81e03dbd6888" class="uuid-23aaef5b-5d43-493a-b369-80b77e0768e9" d="M994.05,621.3h62.13v62.13h-62.13v-62.13Z"/><path id="uuid-7d3c4289-03ed-4b85-9649-5b12062661aa" class="uuid-23aaef5b-5d43-493a-b369-80b77e0768e9" d="M994.05,683.43h62.13v62.13h-62.13v-62.13Z"/><path id="uuid-9095a65f-ed5d-4f05-9d0e-81a4381f1ca4" class="uuid-23aaef5b-5d43-493a-b369-80b77e0768e9" d="M1304.69,559.17h62.13v62.13h-62.13v-62.13Z"/><path id="uuid-dd4953e6-ad6d-4d8e-8ab9-8b8407156193" class="uuid-23aaef5b-5d43-493a-b369-80b77e0768e9" d="M1304.69,621.3h62.13v62.13h-62.13v-62.13Z"/><path id="uuid-5f514043-540c-49e6-a68c-151697b5af28" class="uuid-23aaef5b-5d43-493a-b369-80b77e0768e9" d="M1304.69,683.43h62.13v62.13h-62.13v-62.13Z"/><path id="uuid-5c652e5f-5698-4b85-9e85-94cfa5e9cd2d" class="uuid-23aaef5b-5d43-493a-b369-80b77e0768e9" d="M1428.95,372.79h62.13v62.13h-62.13v-62.13Z"/><path id="uuid-6d7c6e6d-1a75-4433-8922-10beb0ede3d1" class="uuid-23aaef5b-5d43-493a-b369-80b77e0768e9" d="M1491.07,372.79h62.13v62.13h-62.13v-62.13Z"/><path id="uuid-f1a1d1ff-c8f1-4762-93ce-d5c07abedba7" class="uuid-23aaef5b-5d43-493a-b369-80b77e0768e9" d="M1428.94,434.92h62.13v62.13h-62.13v-62.13Z"/><path id="uuid-3c6f31ae-3148-4711-9745-d02e2daa68cd" class="uuid-23aaef5b-5d43-493a-b369-80b77e0768e9" d="M1491.07,434.92h62.13v62.13h-62.13v-62.13Z"/><path id="uuid-c724f690-437f-457e-8941-f21edf088826" class="uuid-23aaef5b-5d43-493a-b369-80b77e0768e9" d="M1366.82,497.05h62.13v62.13h-62.13v-62.13Z"/><path id="uuid-6201b44b-4cae-4727-a180-4356b12607f9" class="uuid-23aaef5b-5d43-493a-b369-80b77e0768e9" d="M1428.95,497.05h62.13v62.13h-62.13v-62.13Z"/><path id="uuid-fd78abc8-20bf-4431-8239-f9620d39b054" class="uuid-23aaef5b-5d43-493a-b369-80b77e0768e9" d="M1491.07,497.05h62.13v62.13h-62.13v-62.13Z"/><path id="uuid-1b16e848-3996-4331-a81d-99b5fc80a62b" class="uuid-23aaef5b-5d43-493a-b369-80b77e0768e9" d="M1366.82,559.18h62.13v62.13h-62.13v-62.13Z"/><path id="uuid-e3ed7ac1-88e9-4132-aa75-817e36f8485e" class="uuid-23aaef5b-5d43-493a-b369-80b77e0768e9" d="M1428.94,559.18h62.13v62.13h-62.13v-62.13Z"/><path id="uuid-ed904040-dcb2-4664-bec6-d8eb5eaa1863" class="uuid-23aaef5b-5d43-493a-b369-80b77e0768e9" d="M1491.07,559.18h62.13v62.13h-62.13v-62.13Z"/><path id="uuid-b8014e23-d31c-49e5-9707-4a0ec0cee687" class="uuid-23aaef5b-5d43-493a-b369-80b77e0768e9" d="M1366.82,621.31h62.13v62.13h-62.13v-62.13Z"/><path id="uuid-decf06d0-d912-48ee-a438-6b5f90b92d87" class="uuid-23aaef5b-5d43-493a-b369-80b77e0768e9" d="M1428.94,621.31h62.13v62.13h-62.13v-62.13Z"/><path id="uuid-d6afdf1a-eb3f-4b30-a0b9-994a6af3592b" class="uuid-23aaef5b-5d43-493a-b369-80b77e0768e9" d="M1491.07,621.31h62.13v62.13h-62.13v-62.13Z"/><path id="uuid-8091a67a-5756-4818-b84a-d369be364d16" class="uuid-23aaef5b-5d43-493a-b369-80b77e0768e9" d="M1366.82,683.44h62.13v62.13h-62.13v-62.13Z"/><path id="uuid-8429a1bc-979e-4e67-97d9-5f2aeb6b644c" class="uuid-23aaef5b-5d43-493a-b369-80b77e0768e9" d="M1428.94,683.44h62.13v62.13h-62.13v-62.13Z"/></g><g id="uuid-ae112cbb-e729-4658-9f51-2fb147e7381b"><path id="uuid-041ba2d4-0a88-497d-8350-4a6e154cc6a0" class="uuid-e9f7f858-4256-4113-a64e-81f7ab47bdaf" d="M62.13,621.3h62.13v62.13h-62.13v-62.13Z"/><path id="uuid-6b6d1107-a950-42d1-9c56-732d45fba916" class="uuid-e9f7f858-4256-4113-a64e-81f7ab47bdaf" d="M124.26,683.42h62.13v62.13h-62.13v-62.13Z"/><path id="uuid-76d7488b-36ab-4f98-8d09-857c3446962f" class="uuid-e9f7f858-4256-4113-a64e-81f7ab47bdaf" d="M683.41,186.41h62.13v62.13h-62.13v-62.13Z"/><path id="uuid-35906726-19d4-4959-aa26-0e01888ed967" class="uuid-e9f7f858-4256-4113-a64e-81f7ab47bdaf" d="M745.54,248.53h62.13v62.13h-62.13v-62.13Z"/><path id="uuid-978e4473-adae-4e2d-b0e6-f9c96515a105" class="uuid-e9f7f858-4256-4113-a64e-81f7ab47bdaf" d="M931.92,248.53h62.13v62.13h-62.13v-62.13Z"/><path id="uuid-4f60fd5e-7e49-422f-9288-7fd3767c0c09" class="uuid-e9f7f858-4256-4113-a64e-81f7ab47bdaf" d="M745.53,310.66h62.13v62.13h-62.13v-62.13Z"/><path id="uuid-c334392c-24a7-4855-856e-3adadeac8ca4" class="uuid-e9f7f858-4256-4113-a64e-81f7ab47bdaf" d="M931.92,310.66h62.13v62.13h-62.13v-62.13Z"/><path id="uuid-513bf1fa-39c1-4de1-9043-fb0e4937c079" class="uuid-e9f7f858-4256-4113-a64e-81f7ab47bdaf" d="M683.41,372.79h62.13v62.13h-62.13v-62.13Z"/><path id="uuid-d8d9dae3-72f9-4090-acaa-b0a265908a31" class="uuid-e9f7f858-4256-4113-a64e-81f7ab47bdaf" d="M745.53,372.79h62.13v62.13h-62.13v-62.13Z"/><path id="uuid-6d331e32-8d4f-492d-a397-fa841765c85f" class="uuid-e9f7f858-4256-4113-a64e-81f7ab47bdaf" d="M931.92,372.79h62.13v62.13h-62.13v-62.13Z"/><path id="uuid-fd35f574-8b15-4788-a470-57ae1aef8530" class="uuid-e9f7f858-4256-4113-a64e-81f7ab47bdaf" d="M434.89,434.92h62.13v62.13h-62.13v-62.13Z"/><path id="uuid-bdf4ce03-f5b2-471e-b094-3c0e45b6e215" class="uuid-e9f7f858-4256-4113-a64e-81f7ab47bdaf" d="M621.28,434.92h62.13v62.13h-62.13v-62.13Z"/><path id="uuid-3e7a7405-f5d0-4a13-aaf0-eb9fee5c8849" class="uuid-e9f7f858-4256-4113-a64e-81f7ab47bdaf" d="M683.41,434.92h62.13v62.13h-62.13v-62.13Z"/><path id="uuid-4c95698c-e30c-4a88-ab3d-2bc43984fa55" class="uuid-e9f7f858-4256-4113-a64e-81f7ab47bdaf" d="M497.02,497.05h62.13v62.13h-62.13v-62.13Z"/><path id="uuid-313b2a1b-b64b-4488-8189-5274485db5cd" class="uuid-e9f7f858-4256-4113-a64e-81f7ab47bdaf" d="M559.15,497.05h62.13v62.13h-62.13v-62.13Z"/><path id="uuid-a9d8e903-4567-435b-bf5d-f401c2670ff6" class="uuid-e9f7f858-4256-4113-a64e-81f7ab47bdaf" d="M621.28,497.05h62.13v62.13h-62.13v-62.13Z"/><path id="uuid-b1320b20-7592-41bd-9ee4-59b6608dd24a" class="uuid-e9f7f858-4256-4113-a64e-81f7ab47bdaf" d="M434.89,621.31h62.13v62.13h-62.13v-62.13Z"/><path id="uuid-1db55cfa-14f7-4623-9ac1-c6c68affdfae" class="uuid-e9f7f858-4256-4113-a64e-81f7ab47bdaf" d="M186.38,683.44h62.13v62.13h-62.13v-62.13Z"/><path id="uuid-d11badb4-3473-423c-95de-488faf04c3b6" class="uuid-e9f7f858-4256-4113-a64e-81f7ab47bdaf" d="M248.51,683.44h62.13v62.13h-62.13v-62.13Z"/><path id="uuid-972151d8-ac07-4ab4-9a14-9b21e1d395b6" class="uuid-e9f7f858-4256-4113-a64e-81f7ab47bdaf" d="M497.02,683.44h62.13v62.13h-62.13v-62.13Z"/><path id="uuid-f53a0d53-ed48-432a-9d85-855fd4816920" class="uuid-e9f7f858-4256-4113-a64e-81f7ab47bdaf" d="M559.15,683.44h62.13v62.13h-62.13v-62.13Z"/><path id="uuid-ffc58b10-8141-4d99-8026-acaebfd9fd4d" class="uuid-e9f7f858-4256-4113-a64e-81f7ab47bdaf" d="M621.28,745.56h62.13v62.13h-62.13v-62.13Z"/><path id="uuid-af5eae3e-ee34-416a-bad8-d4e850e88db7" class="uuid-e9f7f858-4256-4113-a64e-81f7ab47bdaf" d="M683.41,745.56h62.13v62.13h-62.13v-62.13Z"/><path id="uuid-68e90db1-ee3a-49fc-be5a-da7d3e51a0ee" class="uuid-e9f7f858-4256-4113-a64e-81f7ab47bdaf" d="M745.54,745.56h62.13v62.13h-62.13v-62.13Z"/><path id="uuid-a736c11e-3525-4420-a036-aac30544cade" class="uuid-e9f7f858-4256-4113-a64e-81f7ab47bdaf" d="M807.66,745.56h62.13v62.13h-62.13v-62.13Z"/><path id="uuid-a48e07cf-e7af-4703-b286-de3816ee2d96" class="uuid-e9f7f858-4256-4113-a64e-81f7ab47bdaf" d="M869.79,745.56h62.13v62.13h-62.13v-62.13Z"/><path id="uuid-dd5844ef-447d-4c83-a3f9-94cc37ec7cc6" class="uuid-e9f7f858-4256-4113-a64e-81f7ab47bdaf" d="M1056.18,248.53h62.13v62.13h-62.13v-62.13Z"/><path id="uuid-cd4336a4-772f-46dd-aa96-4478c9cd70bf" class="uuid-e9f7f858-4256-4113-a64e-81f7ab47bdaf" d="M1118.31,310.66h62.13v62.13h-62.13v-62.13Z"/><path id="uuid-f06cc3ea-670e-451e-b4ad-eb755c9e492f" class="uuid-e9f7f858-4256-4113-a64e-81f7ab47bdaf" d="M1242.56,497.05h62.13v62.13h-62.13v-62.13Z"/><path id="uuid-65d424c6-9d4d-472c-bdab-2c7fd0fa22f7" class="uuid-e9f7f858-4256-4113-a64e-81f7ab47bdaf" d="M1056.18,559.18h62.13v62.13h-62.13v-62.13Z"/><path id="uuid-eb13817e-57d6-4271-a378-e01f6b3a855d" class="uuid-e9f7f858-4256-4113-a64e-81f7ab47bdaf" d="M1118.31,559.18h62.13v62.13h-62.13v-62.13Z"/><path id="uuid-66fcfe32-7c5e-48d0-bf57-c081a17680ae" class="uuid-e9f7f858-4256-4113-a64e-81f7ab47bdaf" d="M1180.44,559.18h62.13v62.13h-62.13v-62.13Z"/><path id="uuid-52690a45-8afe-4494-b4ab-340ccae181b2" class="uuid-e9f7f858-4256-4113-a64e-81f7ab47bdaf" d="M1242.56,559.18h62.13v62.13h-62.13v-62.13Z"/><path id="uuid-680d6ffb-7f10-4917-b211-44779c869957" class="uuid-e9f7f858-4256-4113-a64e-81f7ab47bdaf" d="M1118.31,621.31h62.13v62.13h-62.13v-62.13Z"/><path id="uuid-0e8a2e53-542f-4df8-975f-9f4db87f3f5e" class="uuid-e9f7f858-4256-4113-a64e-81f7ab47bdaf" d="M1180.44,621.31h62.13v62.13h-62.13v-62.13Z"/><path id="uuid-d90d8d9d-0c88-4e51-88e3-4ab18809c245" class="uuid-e9f7f858-4256-4113-a64e-81f7ab47bdaf" d="M1118.31,683.44h62.13v62.13h-62.13v-62.13Z"/><path id="uuid-4171861f-264d-4c26-86f0-a8425e614e8a" class="uuid-e9f7f858-4256-4113-a64e-81f7ab47bdaf" d="M1180.43,683.44h62.13v62.13h-62.13v-62.13Z"/><path id="uuid-96682666-148e-4488-b9bf-5cfc9be45800" class="uuid-e9f7f858-4256-4113-a64e-81f7ab47bdaf" d="M1242.56,683.44h62.13v62.13h-62.13v-62.13Z"/><path id="uuid-28e8a1e8-869a-4138-9739-d0a3bfbb1923" class="uuid-e9f7f858-4256-4113-a64e-81f7ab47bdaf" d="M1242.56,745.56h62.13v62.13h-62.13v-62.13Z"/><path id="uuid-5f632829-2974-4e3a-80db-880d5068e6b1" class="uuid-e9f7f858-4256-4113-a64e-81f7ab47bdaf" d="M994.05,248.52h62.13v62.13h-62.13v-62.13Z"/><path id="uuid-69e74702-49c3-451e-9faf-0cdb07ff778b" class="uuid-e9f7f858-4256-4113-a64e-81f7ab47bdaf" d="M994.05,559.17h62.13v62.13h-62.13v-62.13Z"/><path id="uuid-442e65e1-bee6-4845-b7c8-39a366e84662" class="uuid-e9f7f858-4256-4113-a64e-81f7ab47bdaf" d="M1304.69,434.91h62.13v62.13h-62.13v-62.13Z"/><path id="uuid-f957bc70-3bd0-44cb-b9d6-36b62479e4b9" class="uuid-e9f7f858-4256-4113-a64e-81f7ab47bdaf" d="M1304.69,497.04h62.13v62.13h-62.13v-62.13Z"/><path id="uuid-c8b4b34e-c118-4670-a18b-94bade093c2d" class="uuid-e9f7f858-4256-4113-a64e-81f7ab47bdaf" d="M1304.69,745.55h62.13v62.13h-62.13v-62.13Z"/><path id="uuid-625b38dc-845d-4770-b18f-2d0c270ea554" class="uuid-e9f7f858-4256-4113-a64e-81f7ab47bdaf" d="M1366.82,372.79h62.13v62.13h-62.13v-62.13Z"/><path id="uuid-4c014211-536e-4869-9a79-56e17ac23b2e" class="uuid-e9f7f858-4256-4113-a64e-81f7ab47bdaf" d="M1366.82,434.92h62.13v62.13h-62.13v-62.13Z"/><path id="uuid-38b27e7b-49d3-419b-821f-15442d70da48" class="uuid-e9f7f858-4256-4113-a64e-81f7ab47bdaf" d="M1553.2,434.92h62.13v62.13h-62.13v-62.13Z"/><path id="uuid-b4be0583-e284-4dac-8f02-1d12e9fe5718" class="uuid-e9f7f858-4256-4113-a64e-81f7ab47bdaf" d="M1553.2,497.05h62.13v62.13h-62.13v-62.13Z"/><path id="uuid-e038e6a6-4656-40aa-8c06-cfb84704ea9d" class="uuid-e9f7f858-4256-4113-a64e-81f7ab47bdaf" d="M1553.2,559.18h62.13v62.13h-62.13v-62.13Z"/><path id="uuid-db4c39c3-885d-4117-9fc8-c2a84a91bc3e" class="uuid-e9f7f858-4256-4113-a64e-81f7ab47bdaf" d="M1553.2,621.31h62.13v62.13h-62.13v-62.13Z"/><path id="uuid-96a768ee-fa7d-4d92-9297-208c5bdd2715" class="uuid-e9f7f858-4256-4113-a64e-81f7ab47bdaf" d="M1491.07,683.44h62.13v62.13h-62.13v-62.13Z"/><path id="uuid-d177db6e-ffc8-43e5-b532-58ef4325517e" class="uuid-e9f7f858-4256-4113-a64e-81f7ab47bdaf" d="M1366.82,745.56h62.13v62.13h-62.13v-62.13Z"/><path id="uuid-8813e79c-eb1d-4ca0-9c8a-4278de1235ec" class="uuid-e9f7f858-4256-4113-a64e-81f7ab47bdaf" d="M1428.95,745.56h62.13v62.13h-62.13v-62.13Z"/></g><g id="uuid-4e5457e0-30f6-45ba-8cde-188c81a6bedc"><path id="uuid-ab72ba45-e9dc-4c83-844a-e90c1003537a" class="uuid-1db03bd3-2584-485c-8180-8d4e9fb4b6c9" d="M869.79,0h62.13v62.13h-62.13V0Z"/><path id="uuid-49daf510-1486-4696-863d-21227f285e60" class="uuid-1db03bd3-2584-485c-8180-8d4e9fb4b6c9" d="M931.92,0h62.13v62.13h-62.13V0Z"/><path id="uuid-e558424a-d2da-43d0-a364-85eb9c5d79b8" class="uuid-1db03bd3-2584-485c-8180-8d4e9fb4b6c9" d="M1056.18,0h62.13v62.13h-62.13V0Z"/><path id="uuid-fe94bc38-475c-488c-8c04-c46fe5801d8a" class="uuid-1db03bd3-2584-485c-8180-8d4e9fb4b6c9" d="M994.05,0h62.13v62.13h-62.13V0Z"/><path id="uuid-967b4521-37b6-49ad-b425-33161e5bb735" class="uuid-1db03bd3-2584-485c-8180-8d4e9fb4b6c9" d="M62.13,434.91h62.13v62.13h-62.13v-62.13Z"/><path id="uuid-7eed3939-1ffa-4a67-aedd-ffdfcb4c0310" class="uuid-1db03bd3-2584-485c-8180-8d4e9fb4b6c9" d="M0,497.04h62.13v62.13H0v-62.13Z"/><path id="uuid-544a5aaf-b358-4b81-8438-45401100505e" class="uuid-1db03bd3-2584-485c-8180-8d4e9fb4b6c9" d="M0,559.17h62.13v62.13H0v-62.13Z"/><path id="uuid-602aed47-fa5a-4593-a76d-967dde7eb988" class="uuid-1db03bd3-2584-485c-8180-8d4e9fb4b6c9" d="M0,621.3h62.13v62.13H0v-62.13Z"/><path id="uuid-cbf99d8c-975c-46ae-8809-fdde003ed836" class="uuid-1db03bd3-2584-485c-8180-8d4e9fb4b6c9" d="M62.13,683.43h62.13v62.13h-62.13v-62.13Z"/><path id="uuid-f0df0309-8f90-43f5-b2df-95520436b88d" class="uuid-1db03bd3-2584-485c-8180-8d4e9fb4b6c9" d="M124.26,372.78h62.13v62.13h-62.13v-62.13Z"/><path id="uuid-838c28ff-d175-4fb7-8fa3-c7a0118ba2cb" class="uuid-1db03bd3-2584-485c-8180-8d4e9fb4b6c9" d="M124.26,745.54h62.13v62.13h-62.13v-62.13Z"/><path id="uuid-4823b90e-211b-4f6f-9c19-e775b343c929" class="uuid-1db03bd3-2584-485c-8180-8d4e9fb4b6c9" d="M745.54,62.15h62.13v62.13h-62.13v-62.13Z"/><path id="uuid-6a3d5014-9dd2-4a71-b653-864694b5bd01" class="uuid-1db03bd3-2584-485c-8180-8d4e9fb4b6c9" d="M807.66,62.15h62.13v62.13h-62.13v-62.13Z"/><path id="uuid-84150dc7-d167-4004-8592-d9c35c992ce0" class="uuid-1db03bd3-2584-485c-8180-8d4e9fb4b6c9" d="M434.89,124.28h62.13v62.13h-62.13v-62.13Z"/><path id="uuid-242256c7-57e6-4f96-8d34-305af4735169" class="uuid-1db03bd3-2584-485c-8180-8d4e9fb4b6c9" d="M497.02,124.28h62.13v62.13h-62.13v-62.13Z"/><path id="uuid-17130d21-88a8-4dac-9813-f382aa348685" class="uuid-1db03bd3-2584-485c-8180-8d4e9fb4b6c9" d="M559.15,124.28h62.13v62.13h-62.13v-62.13Z"/><path id="uuid-b583585b-7639-4f7b-ae0e-ef87d0934f61" class="uuid-1db03bd3-2584-485c-8180-8d4e9fb4b6c9" d="M683.41,124.28h62.13v62.13h-62.13v-62.13Z"/><path id="uuid-0bbb2f62-addd-473d-be39-ee1ac5dc899b" class="uuid-1db03bd3-2584-485c-8180-8d4e9fb4b6c9" d="M372.76,186.41h62.13v62.13h-62.13v-62.13Z"/><path id="uuid-9904cb17-942a-42c3-a8fc-53154a2ca373" class="uuid-1db03bd3-2584-485c-8180-8d4e9fb4b6c9" d="M621.28,186.41h62.13v62.13h-62.13v-62.13Z"/><path id="uuid-937e8cba-8a12-4808-9bd3-d8533f52474a" class="uuid-1db03bd3-2584-485c-8180-8d4e9fb4b6c9" d="M931.92,186.41h62.13v62.13h-62.13v-62.13Z"/><path id="uuid-e4de2d04-04a6-417e-8e61-f8116b91f88f" class="uuid-1db03bd3-2584-485c-8180-8d4e9fb4b6c9" d="M310.64,248.53h62.13v62.13h-62.13v-62.13Z"/><path id="uuid-f918285d-bbf6-45d7-85ea-ec0832f3accd" class="uuid-1db03bd3-2584-485c-8180-8d4e9fb4b6c9" d="M683.41,248.53h62.13v62.13h-62.13v-62.13Z"/><path id="uuid-5641d85e-13ae-4973-9baf-b4191606bd91" class="uuid-1db03bd3-2584-485c-8180-8d4e9fb4b6c9" d="M869.79,248.53h62.13v62.13h-62.13v-62.13Z"/><path id="uuid-cbceea5c-9875-407d-8d0a-0b9abf1efab0" class="uuid-1db03bd3-2584-485c-8180-8d4e9fb4b6c9" d="M310.64,310.66h62.13v62.13h-62.13v-62.13Z"/><path id="uuid-4d2e4186-0a80-4f70-815d-ad566962bd3c" class="uuid-1db03bd3-2584-485c-8180-8d4e9fb4b6c9" d="M683.41,310.66h62.13v62.13h-62.13v-62.13Z"/><path id="uuid-4f0f6c03-8b5a-4664-8aa8-065387fbd7d6" class="uuid-1db03bd3-2584-485c-8180-8d4e9fb4b6c9" d="M869.79,310.66h62.13v62.13h-62.13v-62.13Z"/><path id="uuid-d8d22108-3cfb-42c1-881f-495474e8e559" class="uuid-1db03bd3-2584-485c-8180-8d4e9fb4b6c9" d="M186.38,372.79h62.13v62.13h-62.13v-62.13Z"/><path id="uuid-cc5770e7-c5c3-487a-88dc-26f3d3d5a9bb" class="uuid-1db03bd3-2584-485c-8180-8d4e9fb4b6c9" d="M248.51,372.79h62.13v62.13h-62.13v-62.13Z"/><path id="uuid-e646547d-666f-4a25-a64c-e0fd9eeda610" class="uuid-1db03bd3-2584-485c-8180-8d4e9fb4b6c9" d="M434.89,372.79h62.13v62.13h-62.13v-62.13Z"/><path id="uuid-de5a7d1d-4d1d-40ba-9cf5-9e76a4d3ac73" class="uuid-1db03bd3-2584-485c-8180-8d4e9fb4b6c9" d="M621.28,372.79h62.13v62.13h-62.13v-62.13Z"/><path id="uuid-9f7c7ce6-49da-4688-9e03-fbbcd03bc0a1" class="uuid-1db03bd3-2584-485c-8180-8d4e9fb4b6c9" d="M869.79,372.79h62.13v62.13h-62.13v-62.13Z"/><path id="uuid-68822088-dd58-4366-a368-1f8b2c772854" class="uuid-1db03bd3-2584-485c-8180-8d4e9fb4b6c9" d="M497.02,434.92h62.13v62.13h-62.13v-62.13Z"/><path id="uuid-8538eb86-2dc2-4026-b216-e7a09ca97db9" class="uuid-1db03bd3-2584-485c-8180-8d4e9fb4b6c9" d="M559.15,434.92h62.13v62.13h-62.13v-62.13Z"/><path id="uuid-b4e5b35b-55b2-4029-9457-d52337f968f4" class="uuid-1db03bd3-2584-485c-8180-8d4e9fb4b6c9" d="M931.92,434.92h62.13v62.13h-62.13v-62.13Z"/><path id="uuid-12d7cea2-b002-4491-b6d9-7fbc41290c02" class="uuid-1db03bd3-2584-485c-8180-8d4e9fb4b6c9" d="M372.76,621.31h62.13v62.13h-62.13v-62.13Z"/><path id="uuid-f8d072c3-3ec9-4d94-a937-f6b5bf2a2377" class="uuid-1db03bd3-2584-485c-8180-8d4e9fb4b6c9" d="M310.64,683.44h62.13v62.13h-62.13v-62.13Z"/><path id="uuid-237ffa94-206a-4fa5-b8b9-2a858db5c434" class="uuid-1db03bd3-2584-485c-8180-8d4e9fb4b6c9" d="M434.89,683.44h62.13v62.13h-62.13v-62.13Z"/><path id="uuid-1fa560d6-458f-42c3-98bc-d3f6a5bc4083" class="uuid-1db03bd3-2584-485c-8180-8d4e9fb4b6c9" d="M186.38,745.56h62.13v62.13h-62.13v-62.13Z"/><path id="uuid-56c8a3d7-fbd5-4738-97d3-56bc5986b61a" class="uuid-1db03bd3-2584-485c-8180-8d4e9fb4b6c9" d="M248.51,745.56h62.13v62.13h-62.13v-62.13Z"/><path id="uuid-4285b350-774c-41d5-8bf3-8d1e7afb2d57" class="uuid-1db03bd3-2584-485c-8180-8d4e9fb4b6c9" d="M497.02,745.56h62.13v62.13h-62.13v-62.13Z"/><path id="uuid-fc778fd3-c7a8-4936-ae3c-2c27bf62a928" class="uuid-1db03bd3-2584-485c-8180-8d4e9fb4b6c9" d="M559.15,745.56h62.13v62.13h-62.13v-62.13Z"/><path id="uuid-4e7d2a15-4ca5-4be7-983d-892f67c47054" class="uuid-1db03bd3-2584-485c-8180-8d4e9fb4b6c9" d="M931.92,745.56h62.13v62.13h-62.13v-62.13Z"/><path id="uuid-ec2399f1-b65e-4d5e-8252-942b35f91748" class="uuid-1db03bd3-2584-485c-8180-8d4e9fb4b6c9" d="M621.28,807.69h62.13v62.13h-62.13v-62.13Z"/><path id="uuid-203c0736-b428-4e79-8271-6b0139cb8a05" class="uuid-1db03bd3-2584-485c-8180-8d4e9fb4b6c9" d="M683.41,807.69h62.13v62.13h-62.13v-62.13Z"/><path id="uuid-a6921a13-e3a4-4e69-84cf-e4e8eecf5ddc" class="uuid-1db03bd3-2584-485c-8180-8d4e9fb4b6c9" d="M745.53,807.69h62.13v62.13h-62.13v-62.13Z"/><path id="uuid-60c8b334-b459-4717-8abd-6978001cc950" class="uuid-1db03bd3-2584-485c-8180-8d4e9fb4b6c9" d="M807.66,807.69h62.13v62.13h-62.13v-62.13Z"/><path id="uuid-516a315c-0714-42da-96ac-54d0812685c1" class="uuid-1db03bd3-2584-485c-8180-8d4e9fb4b6c9" d="M869.79,807.69h62.13v62.13h-62.13v-62.13Z"/><path id="uuid-56520d7a-4e48-4f2c-b9db-eab333c5997d" class="uuid-1db03bd3-2584-485c-8180-8d4e9fb4b6c9" d="M1118.31,62.15h62.13v62.13h-62.13v-62.13Z"/><path id="uuid-b1f84372-6393-498d-8a56-e2f42d4977f5" class="uuid-1db03bd3-2584-485c-8180-8d4e9fb4b6c9" d="M1180.44,62.15h62.13v62.13h-62.13v-62.13Z"/><path id="uuid-5a18003b-5a46-42d8-8d57-a177c02fabbb" class="uuid-1db03bd3-2584-485c-8180-8d4e9fb4b6c9" d="M1242.56,124.28h62.13v62.13h-62.13v-62.13Z"/><path id="uuid-06aa5f09-057f-4b56-b716-a7fed1ac7841" class="uuid-1db03bd3-2584-485c-8180-8d4e9fb4b6c9" d="M1056.18,186.41h62.13v62.13h-62.13v-62.13Z"/><path id="uuid-d7386446-9f5d-4d62-b522-f765c1e41842" class="uuid-1db03bd3-2584-485c-8180-8d4e9fb4b6c9" d="M1118.31,248.53h62.13v62.13h-62.13v-62.13Z"/><path id="uuid-d095eb8b-230e-4082-8855-910a7d6d0e71" class="uuid-1db03bd3-2584-485c-8180-8d4e9fb4b6c9" d="M1242.56,434.92h62.13v62.13h-62.13v-62.13Z"/><path id="uuid-ef9a8d04-981e-4dd7-a929-350cfc662f26" class="uuid-1db03bd3-2584-485c-8180-8d4e9fb4b6c9" d="M1056.18,497.05h62.13v62.13h-62.13v-62.13Z"/><path id="uuid-6dc31e37-e082-49b2-a6b7-747f729b50ba" class="uuid-1db03bd3-2584-485c-8180-8d4e9fb4b6c9" d="M1118.31,497.05h62.13v62.13h-62.13v-62.13Z"/><path id="uuid-eab0287e-4c5f-4a87-83f6-b52c83839d14" class="uuid-1db03bd3-2584-485c-8180-8d4e9fb4b6c9" d="M1180.44,497.05h62.13v62.13h-62.13v-62.13Z"/><path id="uuid-2b7cad8f-bd40-45ea-a7dd-00ffc240a5cb" class="uuid-1db03bd3-2584-485c-8180-8d4e9fb4b6c9" d="M1056.18,683.44h62.13v62.13h-62.13v-62.13Z"/><path id="uuid-3e436638-abf6-45c7-8c2c-f26a4661db54" class="uuid-1db03bd3-2584-485c-8180-8d4e9fb4b6c9" d="M1118.31,745.56h62.13v62.13h-62.13v-62.13Z"/><path id="uuid-c793b27f-f160-45aa-b3e3-aa0d7b9513d3" class="uuid-1db03bd3-2584-485c-8180-8d4e9fb4b6c9" d="M1180.44,745.56h62.13v62.13h-62.13v-62.13Z"/><path id="uuid-77d30a58-d2b1-429b-8ca3-e8175008604b" class="uuid-1db03bd3-2584-485c-8180-8d4e9fb4b6c9" d="M1242.56,807.69h62.13v62.13h-62.13v-62.13Z"/><path id="uuid-7b9aea44-96a7-4597-98af-6b3743fdd3d2" class="uuid-1db03bd3-2584-485c-8180-8d4e9fb4b6c9" d="M994.05,186.4h62.13v62.13h-62.13v-62.13Z"/><path id="uuid-e0c876cf-86c1-4354-9fb4-b0a5d8a52b7c" class="uuid-1db03bd3-2584-485c-8180-8d4e9fb4b6c9" d="M994.05,497.04h62.13v62.13h-62.13v-62.13Z"/><path id="uuid-b413b1f3-67b4-4114-9ee3-169b05a44952" class="uuid-1db03bd3-2584-485c-8180-8d4e9fb4b6c9" d="M994.05,745.55h62.13v62.13h-62.13v-62.13Z"/><path id="uuid-4fff8a9f-b2ee-4410-9b82-36e5e1032e93" class="uuid-1db03bd3-2584-485c-8180-8d4e9fb4b6c9" d="M1304.69,186.4h62.13v62.13h-62.13v-62.13Z"/><path id="uuid-94f92d4f-2ac2-49c5-9785-fe7a5132b103" class="uuid-1db03bd3-2584-485c-8180-8d4e9fb4b6c9" d="M1304.69,248.52h62.13v62.13h-62.13v-62.13Z"/><path id="uuid-12b3ac70-05b4-4cde-bdf2-721000b25aa5" class="uuid-1db03bd3-2584-485c-8180-8d4e9fb4b6c9" d="M1304.69,310.65h62.13v62.13h-62.13v-62.13Z"/><path id="uuid-6ff9ae4e-7756-4bdd-bc44-3343009ca3d1" class="uuid-1db03bd3-2584-485c-8180-8d4e9fb4b6c9" d="M1304.69,372.78h62.13v62.13h-62.13v-62.13Z"/><path id="uuid-18f61798-bc0e-4cd1-acd0-b076ea0d9a71" class="uuid-1db03bd3-2584-485c-8180-8d4e9fb4b6c9" d="M1304.69,807.68h62.13v62.13h-62.13v-62.13Z"/><path id="uuid-a56dd2f3-ac52-472e-affe-baf16f445b20" class="uuid-1db03bd3-2584-485c-8180-8d4e9fb4b6c9" d="M1366.82,310.66h62.13v62.13h-62.13v-62.13Z"/><path id="uuid-0fa91040-dd7e-44f6-9074-4743d0ad3dd8" class="uuid-1db03bd3-2584-485c-8180-8d4e9fb4b6c9" d="M1428.95,310.66h62.13v62.13h-62.13v-62.13Z"/><path id="uuid-c52dd9e1-1616-48fe-b2a3-3de39b8a1af8" class="uuid-1db03bd3-2584-485c-8180-8d4e9fb4b6c9" d="M1491.07,310.66h62.13v62.13h-62.13v-62.13Z"/><path id="uuid-2e0306f0-e766-4cea-9dc5-775916afc86b" class="uuid-1db03bd3-2584-485c-8180-8d4e9fb4b6c9" d="M1553.2,372.79h62.13v62.13h-62.13v-62.13Z"/><path id="uuid-b4117636-a926-409d-a879-09dd92fc2ea4" class="uuid-1db03bd3-2584-485c-8180-8d4e9fb4b6c9" d="M1615.33,434.92h62.13v62.13h-62.13v-62.13Z"/><path id="uuid-b814d796-aecd-4888-97b9-381811b045d9" class="uuid-1db03bd3-2584-485c-8180-8d4e9fb4b6c9" d="M1615.33,497.05h62.13v62.13h-62.13v-62.13Z"/><path id="uuid-e1a3dbf1-0b0d-40ef-974c-0e7fe6cea9ad" class="uuid-1db03bd3-2584-485c-8180-8d4e9fb4b6c9" d="M1615.33,559.18h62.13v62.13h-62.13v-62.13Z"/><path id="uuid-d94dde89-419a-40f3-8ae7-e9fe89c50456" class="uuid-1db03bd3-2584-485c-8180-8d4e9fb4b6c9" d="M1615.33,621.31h62.13v62.13h-62.13v-62.13Z"/><path id="uuid-e9b4ce0b-7189-4a59-9aa1-ae03e8db07d5" class="uuid-1db03bd3-2584-485c-8180-8d4e9fb4b6c9" d="M1553.2,683.44h62.13v62.13h-62.13v-62.13Z"/><path id="uuid-98a81b64-c19a-4fa2-998c-2c22773410ee" class="uuid-1db03bd3-2584-485c-8180-8d4e9fb4b6c9" d="M1491.07,745.56h62.13v62.13h-62.13v-62.13Z"/><path id="uuid-ac4ac9ce-4ceb-42dc-84c9-0c9141608ffc" class="uuid-1db03bd3-2584-485c-8180-8d4e9fb4b6c9" d="M1366.82,807.69h62.13v62.13h-62.13v-62.13Z"/><path id="uuid-b40d6cd1-1aa1-4b90-a147-86f28b4ea7f2" class="uuid-1db03bd3-2584-485c-8180-8d4e9fb4b6c9" d="M1428.95,807.69h62.13v62.13h-62.13v-62.13Z"/></g></g></svg>