<?xml version="1.0" encoding="UTF-8"?>
<svg xmlns="http://www.w3.org/2000/svg" version="1.1" viewBox="0 0 512 512">
  <defs>
    <style>
      .cls-1 {
        fill: #fff;
      }

      .cls-2 {
        fill: #007bea;
      }
    </style>
  </defs>
  <!-- Generator: Adobe Illustrator 28.7.1, SVG Export Plug-In . SVG Version: 1.2.0 Build 142)  -->
  <g>
    <g id="Layer_2">
      <g id="Icon">
        <g id="_135">
          <path id="BG" class="cls-2" d="M512,150v212c0,82.8-67.2,150-150,150h-212C67.2,512,0,444.8,0,362v-212C0,67.2,67.2,0,150,0h212c82.8,0,150,67.2,150,150Z"/>
          <path class="cls-1" d="M332.9,132.2c0-13.4-16.2-20.1-25.6-10.6l-123.8,123.8c-5.9,5.9-5.9,15.3,0,21.2l123.8,123.8c9.4,9.4,25.6,2.8,25.6-10.6v-53.6c0-4-1.6-7.8-4.4-10.6l-59.6-59.6,59.6-59.6c2.8-2.8,4.4-6.6,4.4-10.6v-53.6s0,0,0,0Z"/>
        </g>
      </g>
    </g>
  </g>
</svg>