<svg height="512" viewBox="0 0 48 48" width="512" xmlns="http://www.w3.org/2000/svg"><g id="Calendar_Smile" data-name="Calendar Smile"><path d="m5 47a4.0045 4.0045 0 0 1 -4-4v-32a4.0045 4.0045 0 0 1 4-4h38a4.0045 4.0045 0 0 1 4 4v27l-9 9z" fill="#e6ecff"/><path d="m1 17v-6a4.0045 4.0045 0 0 1 4-4h38a4.0045 4.0045 0 0 1 4 4v6z" fill="#4294ff"/><path d="m40 38a2 2 0 0 0 -2 2v7l9-9z" fill="#d0dbf7"/><circle cx="24" cy="32" fill="#4294ff" r="11"/><g fill="#232328"><path d="m43 6h-2v-2a4 4 0 0 0 -8 0v2h-5v-2a4 4 0 0 0 -8 0v2h-5v-2a4 4 0 0 0 -8 0v2h-2a5.0059 5.0059 0 0 0 -5 5v32a5.0059 5.0059 0 0 0 5 5h33a1 1 0 0 0 .707-.293l9-9a.9993.9993 0 0 0 .293-.707v-27a5.0059 5.0059 0 0 0 -5-5zm-38 2h2v1a4.0042 4.0042 0 0 0 4 4h1a1 1 0 0 0 0-2h-1a2.0023 2.0023 0 0 1 -2-2v-5a2 2 0 0 1 4 0v2h-1a1 1 0 0 0 0 2h8v1a4.0042 4.0042 0 0 0 4 4h1a1 1 0 0 0 0-2h-1a2.0023 2.0023 0 0 1 -2-2v-5a2 2 0 0 1 4 0v2h-1a1 1 0 0 0 0 2h8v1a4.0042 4.0042 0 0 0 4 4h1a1 1 0 0 0 0-2h-1a2.0023 2.0023 0 0 1 -2-2v-5a2 2 0 0 1 4 0v2h-1a1 1 0 0 0 0 2h5a3.0033 3.0033 0 0 1 3 3v5h-44v-5a3.0033 3.0033 0 0 1 3-3zm-3 35v-25h44v19h-6a3.0033 3.0033 0 0 0 -3 3v6h-32a3.0033 3.0033 0 0 1 -3-3zm42.5859-4-5.5859 5.5859v-4.5859a1.0009 1.0009 0 0 1 1-1z"/><path d="m24 20a12 12 0 1 0 12 12 12.0134 12.0134 0 0 0 -12-12zm0 22a10 10 0 1 1 10-10 10.0114 10.0114 0 0 1 -10 10z"/><path d="m28 27a3.0033 3.0033 0 0 0 -3 3 1 1 0 0 0 2 0 1 1 0 0 1 2 0 1 1 0 0 0 2 0 3.0033 3.0033 0 0 0 -3-3z"/><path d="m20 29a1.0009 1.0009 0 0 1 1 1 1 1 0 0 0 2 0 3 3 0 0 0 -6 0 1 1 0 0 0 2 0 1.0009 1.0009 0 0 1 1-1z"/><path d="m28 33a1 1 0 0 0 -1 1 3 3 0 0 1 -6 0 1 1 0 0 0 -2 0 5 5 0 0 0 10 0 1 1 0 0 0 -1-1z"/></g></g></svg>