<svg enable-background="new 0 0 256 256" height="512" viewBox="0 0 256 256" width="512" xmlns="http://www.w3.org/2000/svg"><g id="_x32_4_Refresh"><path d="m252.983 53v150c0 27.614-22.386 50-50 50h-149.966c-27.614 0-50-22.386-50-50v-150c0-27.614 22.386-50 50-50h149.965c27.615 0 50.001 22.386 50.001 50z" fill="#2989ed"/><g fill="#fff"><path d="m95.733 99.467c5.835-1.562 9.768-6.775 9.768-12.689 0-8.597-8.104-14.907-16.382-12.745-24.209 6.305-41.118 28.196-41.118 53.234 0 29.49 23.33 53.633 52.5 54.945v7.084c0 5.974 6.93 9.285 11.563 5.625l25.798-20.138c.002-.001.002-.001.005-.002 3.652-2.865 3.655-8.441-.002-11.282l-25.791-20.168c-4.658-3.678-11.572-.349-11.572 5.636v6.903c-14.663-1.272-26.208-13.615-26.208-28.602-.001-13.043 8.812-24.473 21.439-27.801zm-26.44 27.799c0 18.588 15.122 33.71 33.708 33.71 1.382 0 2.5-1.119 2.5-2.5v-9.51c0-1.771 2.058-2.833 3.484-1.704l25.806 20.181c1.094.85 1.083 2.546-.007 3.401l-25.806 20.144c-1.394 1.098-3.477.091-3.477-1.692v-9.528c0-1.381-1.118-2.5-2.5-2.5-27.571 0-50-22.43-50-50.001 0-22.762 15.371-42.664 37.38-48.396 5.127-1.338 10.12 2.602 10.12 7.908 0 3.64-2.385 6.876-6.05 7.856-14.812 3.903-25.158 17.321-25.158 32.631z"/><path d="m207.999 128.726c0 25.05-16.9 46.95-41.125 53.25-8.25 2.15-16.375-4.15-16.375-12.75 0-5.95 3.975-11.15 9.775-12.7 12.625-3.325 21.425-14.75 21.425-27.8 0-14.975-11.525-27.325-26.2-28.6v6.9c0 5.975-6.9 9.325-11.575 5.65l-25.775-20.175c-1.825-1.4-2.75-3.525-2.75-5.65 0-2.1.9-4.2 2.75-5.625l25.8-20.15c4.625-3.65 11.55-.35 11.55 5.625v7.1c29.175 1.3 52.5 25.45 52.5 54.925z"/></g></g></svg>